<svg preserveAspectRatio="none" width="100%" height="100%" overflow="visible" style="display: block;" viewBox="0 0 160 66" fill="none" xmlns="http://www.w3.org/2000/svg">
<g id="looka">
<path d="M29.5221 50.0762C30.2099 50.0762 30.739 50.3556 31.1093 50.9143C31.5326 51.473 31.7442 52.2413 31.7442 53.2191C31.7442 55.0815 31.2416 56.5249 30.2364 57.5492C27.9614 60.0169 25.4747 62.0423 22.7765 63.6254C20.1311 65.2085 17.1154 66 13.7294 66C9.07356 66 5.60815 64.1376 3.33314 60.4127C1.11105 56.6878 0 51.8688 0 45.9556C0 40.2751 0.820059 33.8032 2.46018 26.5397C4.1532 19.2762 6.61338 13.037 9.84071 7.82222C13.1209 2.60741 17.0096 0 21.5067 0C24.0462 0 26.0303 1.04762 27.4588 3.14286C28.9401 5.19154 29.6808 8.14815 29.6808 12.0127C29.6808 17.5534 27.9349 23.9788 24.443 31.2889C20.9512 38.5989 16.216 45.8392 10.2375 53.0095C10.6079 54.9185 11.2163 56.2921 12.0628 57.1302C12.9093 57.9217 14.0204 58.3175 15.3959 58.3175C17.5651 58.3175 19.4698 57.782 21.1099 56.7111C22.75 55.5937 24.8399 53.7079 27.3794 51.054C28.0143 50.4021 28.7285 50.0762 29.5221 50.0762ZM19.7608 6.91429C18.5439 6.91429 17.1683 8.84656 15.634 12.7111C14.0997 16.5757 12.7506 21.3714 11.5866 27.0984C10.4227 32.8254 9.7878 38.3196 9.68199 43.581C13.4384 38.1333 16.4276 32.6857 18.6497 27.2381C20.8718 21.7439 21.9829 16.7386 21.9829 12.2222C21.9829 8.6836 21.2422 6.91429 19.7608 6.91429Z" fill="var(--fill-0, #DC0073)"/>
<path d="M64.4362 44.2095C65.124 44.2095 65.6531 44.5122 66.0235 45.1175C66.3938 45.7228 66.579 46.491 66.579 47.4222C66.579 49.6572 65.8118 50.9841 64.2775 51.4032C61.1031 52.381 57.6112 52.9397 53.8019 53.0794C52.7967 56.9905 50.8127 60.1333 47.8499 62.5079C44.8871 64.836 41.5275 66 37.7711 66C34.5967 66 31.872 65.3249 29.597 63.9746C27.3749 62.6243 25.6818 60.8318 24.5179 58.5968C23.3539 56.3619 22.772 53.9407 22.772 51.3333C22.772 47.7947 23.5391 44.6519 25.0734 41.9048C26.6077 39.1111 28.724 36.946 31.4223 35.4095C34.1205 33.8265 37.1098 33.0349 40.39 33.0349C44.4109 33.0349 47.6383 34.2688 50.072 36.7365C52.5586 39.1577 54.0136 42.1609 54.4368 45.746C56.9234 45.6064 59.8862 45.1407 63.3252 44.3492C63.7485 44.2561 64.1188 44.2095 64.4362 44.2095ZM38.406 58.5968C40.099 58.5968 41.5539 57.9915 42.7708 56.781C44.0406 55.5704 44.8871 53.8243 45.3103 51.5429C43.6702 50.5651 42.4005 49.2847 41.501 47.7016C40.6545 46.1185 40.2313 44.4423 40.2313 42.673C40.2313 41.928 40.3106 41.1831 40.4694 40.4381H40.0725C37.9563 40.4381 36.1839 41.346 34.7554 43.1619C33.3798 44.9312 32.692 47.4455 32.692 50.7048C32.692 53.2656 33.2475 55.2212 34.3586 56.5714C35.5225 57.9217 36.8717 58.5968 38.406 58.5968Z" fill="var(--fill-0, #DC0073)"/>
<path d="M97.9045 44.2095C98.5923 44.2095 99.1214 44.5122 99.4917 45.1175C99.8621 45.7228 100.047 46.491 100.047 47.4222C100.047 49.6572 99.2801 50.9841 97.7458 51.4032C94.5714 52.381 91.0795 52.9397 87.2702 53.0794C86.2649 56.9905 84.2809 60.1333 81.3181 62.5079C78.3553 64.836 74.9958 66 71.2394 66C68.0649 66 65.3402 65.3249 63.0652 63.9746C60.8431 62.6243 59.1501 60.8318 57.9861 58.5968C56.8222 56.3619 56.2402 53.9407 56.2402 51.3333C56.2402 47.7947 57.0074 44.6519 58.5417 41.9048C60.076 39.1111 62.1922 36.946 64.8905 35.4095C67.5888 33.8265 70.578 33.0349 73.8583 33.0349C77.8792 33.0349 81.1065 34.2688 83.5402 36.7365C86.0269 39.1577 87.4818 42.1609 87.9051 45.746C90.3917 45.6064 93.3545 45.1407 96.7935 44.3492C97.2167 44.2561 97.5871 44.2095 97.9045 44.2095ZM71.8742 58.5968C73.5673 58.5968 75.0222 57.9915 76.2391 56.781C77.5088 55.5704 78.3553 53.8243 78.7786 51.5429C77.1385 50.5651 75.8687 49.2847 74.9693 47.7016C74.1228 46.1185 73.6995 44.4423 73.6995 42.673C73.6995 41.928 73.7789 41.1831 73.9376 40.4381H73.5408C71.4245 40.4381 69.6521 41.346 68.2236 43.1619C66.8481 44.9312 66.1603 47.4455 66.1603 50.7048C66.1603 53.2656 66.7158 55.2212 67.8268 56.5714C68.9908 57.9217 70.3399 58.5968 71.8742 58.5968Z" fill="var(--fill-0, #DC0073)"/>
<path d="M135.8 50.0762C136.487 50.0762 137.016 50.3556 137.387 50.9143C137.81 51.473 138.022 52.2413 138.022 53.2191C138.022 55.0815 137.519 56.5249 136.514 57.5492C134.133 60.1101 131.726 62.1587 129.292 63.6952C126.858 65.2317 123.975 66 120.642 66C116.568 66 113.288 64.9757 110.801 62.927C108.314 60.8783 107.071 58.1545 107.071 54.7556C107.071 52.9397 108.129 51.636 110.245 50.8444C112.573 49.9598 114.24 49.0286 115.245 48.0508C116.25 47.0265 116.753 45.7926 116.753 44.3492C116.753 43.5111 116.541 42.8825 116.118 42.4635C115.748 42.0444 115.272 41.8349 114.69 41.8349C113.261 41.8349 111.674 42.7429 109.928 44.5587C108.235 46.3746 106.648 48.7259 105.166 51.6127C103.685 54.4529 102.521 57.3862 101.675 60.4127C101.093 62.6011 100.405 64.091 99.6112 64.8825C98.8705 65.6275 97.6801 66 96.0399 66C94.3998 66 93.1829 65.4878 92.3893 64.4635C91.6486 63.3926 91.146 61.763 90.8815 59.5746C90.617 57.3863 90.4847 54.1735 90.4847 49.9365C90.4847 42.7661 91.3048 35.2931 92.9449 27.5175C94.6379 19.7418 97.0981 13.2233 100.325 7.96191C103.606 2.65397 107.521 0 112.071 0C114.504 0 116.462 0.931217 117.943 2.79365C119.478 4.60952 120.245 6.98413 120.245 9.91746C120.245 14.6201 118.684 19.509 115.563 24.5841C112.441 29.6127 107.362 35.5027 100.325 42.254C100.167 44.6751 100.087 47.1661 100.087 49.727C102.627 43.9069 105.537 39.6931 108.817 37.0857C112.097 34.4317 115.166 33.1048 118.023 33.1048C120.668 33.1048 122.784 33.8963 124.372 35.4794C126.012 37.0624 126.832 39.018 126.832 41.346C126.832 43.9069 126.091 46.2582 124.61 48.4C123.128 50.5418 120.589 52.4508 116.991 54.127C117.203 55.3841 117.838 56.4085 118.896 57.2C120.007 57.945 121.329 58.3175 122.864 58.3175C124.504 58.3175 126.091 57.7587 127.625 56.6413C129.16 55.5238 131.17 53.6614 133.657 51.054C134.292 50.4021 135.006 50.0762 135.8 50.0762ZM110.404 6.91429C109.452 6.91429 108.394 8.12487 107.23 10.546C106.066 12.9206 104.928 16.1566 103.817 20.254C102.759 24.3048 101.886 28.728 101.198 33.5238C104.479 30.1249 107.177 26.4233 109.293 22.4191C111.462 18.4148 112.547 14.7831 112.547 11.5238C112.547 10.0339 112.362 8.89312 111.991 8.10159C111.621 7.31005 111.092 6.91429 110.404 6.91429Z" fill="var(--fill-0, #DC0073)"/>
<path d="M138.414 66C135.398 66 132.938 64.9524 131.033 62.8571C129.182 60.7619 128.256 58.0148 128.256 54.6159C128.256 50.891 129.235 47.3757 131.192 44.0698C133.15 40.7175 135.742 38.0402 138.969 36.0381C142.25 33.9894 145.715 32.9651 149.366 32.9651C150.53 32.9651 151.297 33.1746 151.667 33.5937C152.09 33.9661 152.434 34.6646 152.699 35.6889C153.704 35.5027 154.815 35.4095 156.032 35.4095C157.302 35.4095 158.281 35.6889 158.968 36.2476C159.656 36.8064 160 37.5979 160 38.6222C160 39.6931 159.735 41.5556 159.206 44.2095C158.624 47.0497 158.175 49.7735 157.857 52.381C157.54 54.9418 157.381 57.8286 157.381 61.0413C157.381 62.8106 156.958 64.091 156.111 64.8825C155.318 65.6275 153.995 66 152.143 66C150.344 66 148.995 65.6275 148.096 64.8825C147.249 64.091 146.826 62.8339 146.826 61.1111L146.906 59.9937C145.265 63.9979 142.435 66 138.414 66ZM141.509 58.946C142.99 58.946 144.34 58.0381 145.556 56.2222C146.773 54.4064 147.858 51.1704 148.81 46.5143L151.288 39.4603C149.119 39.5069 146.138 40.2519 144.287 41.6952C142.435 43.0921 140.953 44.9545 139.842 47.2825C138.731 49.6106 138.176 52.0783 138.176 54.6857C138.176 56.0825 138.467 57.1534 139.049 57.8984C139.684 58.5968 140.504 58.946 141.509 58.946Z" fill="var(--fill-0, #DC0073)"/>
</g>
</svg>
