<svg preserveAspectRatio="none" width="100%" height="100%" overflow="visible" style="display: block;" viewBox="0 0 20 20" fill="none" xmlns="http://www.w3.org/2000/svg">
<g id="view">
<path id="Vector" d="M17.5 14.1667V15.8333C17.5 16.2754 17.3244 16.6993 17.0118 17.0118C16.6993 17.3244 16.2754 17.5 15.8333 17.5H4.16667C3.72464 17.5 3.30072 17.3244 2.98816 17.0118C2.67559 16.6993 2.5 16.2754 2.5 15.8333V14.1667M17.5 5.83333V4.16667C17.5 3.72464 17.3244 3.30072 17.0118 2.98816C16.6993 2.67559 16.2754 2.5 15.8333 2.5H4.16667C3.72464 2.5 3.30072 2.67559 2.98816 2.98816C2.67559 3.30072 2.5 3.72464 2.5 4.16667V5.83333M10.8333 10C10.8333 10.4602 10.4602 10.8333 10 10.8333C9.53976 10.8333 9.16667 10.4602 9.16667 10C9.16667 9.53976 9.53976 9.16667 10 9.16667C10.4602 9.16667 10.8333 9.53976 10.8333 10ZM15.7867 10.275C15.8489 10.097 15.8489 9.90307 15.7867 9.72502C15.3175 8.57538 14.5165 7.59154 13.4859 6.89899C12.4553 6.20645 11.2417 5.83659 10 5.83659C8.75832 5.83659 7.54476 6.20645 6.51414 6.89899C5.48351 7.59154 4.68252 8.57538 4.21335 9.72502C4.15111 9.90307 4.15111 10.097 4.21335 10.275C4.68252 11.4247 5.48351 12.4085 6.51414 13.1011C7.54476 13.7936 8.75832 14.1635 10 14.1635C11.2417 14.1635 12.4553 13.7936 13.4859 13.1011C14.5165 12.4085 15.3175 11.4247 15.7867 10.275Z" stroke="var(--stroke-0, #DC0073)" stroke-width="2" stroke-linecap="round"/>
</g>
</svg>
