<svg width="169" height="48" overflow="visible" style="display: block;" viewBox="0 0 169 48" fill="none" xmlns="http://www.w3.org/2000/svg">
<g id="logo-group">
<g id="looka">
<path d="M20.85 35.9016C21.3358 35.9016 21.7094 36.0963 21.971 36.4857C22.2699 36.8751 22.4194 37.4106 22.4194 38.0921C22.4194 39.3901 22.0644 40.3961 21.3544 41.1101C19.7477 42.83 17.9915 44.2416 16.0859 45.345C14.2176 46.4483 12.0878 47 9.69637 47C6.4082 47 3.96075 45.7019 2.35403 43.1058C0.784677 40.5097 0 37.151 0 33.0296C0 29.0705 0.579167 24.5598 1.7375 19.4974C2.9332 14.4349 4.6707 10.0864 6.95 6.45185C9.26667 2.81728 12.013 1 15.1891 1C16.9827 1 18.3839 1.73016 19.3927 3.19048C20.439 4.61834 20.9621 6.67901 20.9621 9.37249C20.9621 13.2342 19.729 17.7125 17.2629 22.8074C14.7968 27.9023 11.4526 32.9485 7.23024 37.946C7.4918 39.2765 7.92151 40.2339 8.51936 40.818C9.1172 41.3697 9.90188 41.6455 10.8734 41.6455C12.4054 41.6455 13.7505 41.2723 14.9089 40.5259C16.0672 39.7471 17.5431 38.4328 19.3367 36.5831C19.7851 36.1288 20.2895 35.9016 20.85 35.9016ZM13.956 5.81905C13.0966 5.81905 12.1251 7.16579 11.0415 9.85926C9.95793 12.5527 9.00511 15.8952 8.18306 19.8868C7.36102 23.8783 6.91263 27.7076 6.8379 31.3746C9.49086 27.5778 11.602 23.781 13.1714 19.9841C14.7407 16.1549 15.5254 12.6663 15.5254 9.51852C15.5254 7.05221 15.0023 5.81905 13.956 5.81905Z" fill="var(--fill-0, #DC0073)"/>
<path d="M45.5081 31.8127C45.9938 31.8127 46.3675 32.0236 46.6291 32.4455C46.8906 32.8674 47.0214 33.4028 47.0214 34.0519C47.0214 35.6095 46.4796 36.5344 45.396 36.8265C43.1541 37.5079 40.6879 37.8974 37.9976 37.9947C37.2877 40.7206 35.8865 42.9111 33.794 44.5661C31.7015 46.1887 29.3288 47 26.6758 47C24.4339 47 22.5096 46.5295 20.9029 45.5884C19.3335 44.6473 18.1378 43.3979 17.3158 41.8402C16.4937 40.2825 16.0827 38.5951 16.0827 36.7778C16.0827 34.3115 16.6245 32.121 17.7081 30.2064C18.7917 28.2593 20.2863 26.7503 22.192 25.6794C24.0976 24.576 26.2088 24.0243 28.5254 24.0243C31.3652 24.0243 33.6445 24.8843 35.3633 26.6042C37.1195 28.2917 38.1471 30.3848 38.446 32.8836C40.2022 32.7862 42.2947 32.4617 44.7234 31.9101C45.0223 31.8452 45.2839 31.8127 45.5081 31.8127ZM27.1242 41.8402C28.3199 41.8402 29.3475 41.4183 30.2069 40.5746C31.1037 39.7309 31.7015 38.5139 32.0004 36.9238C30.8421 36.2423 29.9453 35.3499 29.3101 34.2466C28.7123 33.1432 28.4133 31.975 28.4133 30.7418C28.4133 30.2226 28.4694 29.7034 28.5815 29.1841H28.3012C26.8066 29.1841 25.5549 29.8169 24.546 31.0825C23.5745 32.3157 23.0887 34.0681 23.0887 36.3397C23.0887 38.1245 23.4811 39.4875 24.2658 40.4286C25.0878 41.3697 26.0406 41.8402 27.1242 41.8402Z" fill="var(--fill-0, #DC0073)"/>
<path d="M69.1451 31.8127C69.6308 31.8127 70.0045 32.0236 70.266 32.4455C70.5276 32.8674 70.6584 33.4028 70.6584 34.0519C70.6584 35.6095 70.1166 36.5344 69.033 36.8265C66.791 37.5079 64.3249 37.8974 61.6346 37.9947C60.9246 40.7206 59.5234 42.9111 57.4309 44.5661C55.3385 46.1887 52.9658 47 50.3128 47C48.0709 47 46.1465 46.5295 44.5398 45.5884C42.9705 44.6473 41.7748 43.3979 40.9527 41.8402C40.1307 40.2825 39.7196 38.5951 39.7196 36.7778C39.7196 34.3115 40.2614 32.121 41.345 30.2064C42.4287 28.2593 43.9233 26.7503 45.8289 25.6794C47.7346 24.576 49.8457 24.0243 52.1624 24.0243C55.0022 24.0243 57.2815 24.8843 59.0003 26.6042C60.7565 28.2917 61.784 30.3848 62.0829 32.8836C63.8391 32.7862 65.9316 32.4617 68.3604 31.9101C68.6593 31.8452 68.9209 31.8127 69.1451 31.8127ZM50.7612 41.8402C51.9569 41.8402 52.9844 41.4183 53.8438 40.5746C54.7406 39.7309 55.3385 38.5139 55.6374 36.9238C54.4791 36.2423 53.5823 35.3499 52.9471 34.2466C52.3492 33.1432 52.0503 31.975 52.0503 30.7418C52.0503 30.2226 52.1063 29.7034 52.2184 29.1841H51.9382C50.4436 29.1841 49.1918 29.8169 48.183 31.0825C47.2114 32.3157 46.7257 34.0681 46.7257 36.3397C46.7257 38.1245 47.118 39.4875 47.9027 40.4286C48.7248 41.3697 49.6776 41.8402 50.7612 41.8402Z" fill="var(--fill-0, #DC0073)"/>
<path d="M95.9084 35.9016C96.3942 35.9016 96.7679 36.0963 97.0294 36.4857C97.3283 36.8751 97.4778 37.4106 97.4778 38.0921C97.4778 39.3901 97.1228 40.3961 96.4129 41.1101C94.7314 42.8949 93.0313 44.3228 91.3125 45.3937C89.5937 46.4645 87.5572 47 85.2032 47C82.3261 47 80.0094 46.2861 78.2532 44.8582C76.497 43.4303 75.6189 41.5319 75.6189 39.163C75.6189 37.8974 76.3662 36.9887 77.8609 36.437C79.505 35.8205 80.682 35.1714 81.3919 34.4899C82.1019 33.776 82.4568 32.9161 82.4568 31.9101C82.4568 31.3259 82.3074 30.8878 82.0084 30.5958C81.7469 30.3037 81.4106 30.1577 80.9996 30.1577C79.9907 30.1577 78.8697 30.7905 77.6367 32.0561C76.441 33.3217 75.32 34.9605 74.2738 36.9725C73.2275 38.952 72.4055 40.9965 71.8076 43.1058C71.3966 44.631 70.9109 45.6695 70.3504 46.2212C69.8273 46.7404 68.9865 47 67.8282 47C66.6699 47 65.8105 46.643 65.25 45.9291C64.7269 45.1827 64.3719 44.0469 64.1851 42.5217C63.9982 40.9965 63.9048 38.7573 63.9048 35.8042C63.9048 30.8067 64.484 25.5982 65.6423 20.1788C66.838 14.7594 68.5755 10.2162 70.8548 6.54921C73.1715 2.84974 75.9365 1 79.15 1C80.8688 1 82.2513 1.64903 83.2976 2.94709C84.3812 4.2127 84.923 5.86772 84.923 7.91217C84.923 11.1898 83.8207 14.5972 81.6161 18.1344C79.4115 21.6392 75.8244 25.7443 70.8548 30.4497C70.7427 32.1372 70.6867 33.8734 70.6867 35.6582C72.4802 31.6018 74.5353 28.6649 76.852 26.8476C79.1687 24.9979 81.3359 24.073 83.3536 24.073C85.2219 24.073 86.7165 24.6247 87.8375 25.728C88.9958 26.8314 89.575 28.1944 89.575 29.8169C89.575 31.6018 89.0519 33.2406 88.0056 34.7333C86.9594 36.2261 85.1658 37.5566 82.625 38.7249C82.7744 39.6011 83.2228 40.315 83.9701 40.8667C84.7548 41.3859 85.689 41.6455 86.7726 41.6455C87.9309 41.6455 89.0519 41.2561 90.1355 40.4772C91.2191 39.6984 92.639 38.4004 94.3951 36.5831C94.8435 36.1288 95.348 35.9016 95.9084 35.9016ZM77.973 5.81905C77.3004 5.81905 76.5531 6.66279 75.731 8.35027C74.909 10.0053 74.1056 12.2607 73.3209 15.1164C72.5736 17.9397 71.9571 21.0226 71.4713 24.3651C73.788 21.9961 75.6937 19.4162 77.1883 16.6254C78.7203 13.8346 79.4863 11.3034 79.4863 9.03175C79.4863 7.9933 79.3555 7.19824 79.0939 6.64656C78.8324 6.09489 78.4587 5.81905 77.973 5.81905Z" fill="var(--fill-0, #DC0073)"/>
<path d="M97.7548 47C95.625 47 93.8875 46.2698 92.5423 44.8095C91.2345 43.3492 90.5806 41.4346 90.5806 39.0656C90.5806 36.4695 91.2719 34.0194 92.6544 31.7153C94.037 29.3788 95.8679 27.5129 98.1472 26.1175C100.464 24.6896 102.911 23.9757 105.49 23.9757C106.312 23.9757 106.853 24.1217 107.115 24.4138C107.414 24.6734 107.657 25.1601 107.844 25.8741C108.553 25.7443 109.338 25.6794 110.198 25.6794C111.094 25.6794 111.786 25.8741 112.271 26.2635C112.757 26.6529 113 27.2046 113 27.9185C113 28.6649 112.813 29.963 112.44 31.8127C112.028 33.7922 111.711 35.6907 111.487 37.5079C111.262 39.2928 111.15 41.3048 111.15 43.5439C111.15 44.7771 110.851 45.6695 110.254 46.2212C109.693 46.7404 108.759 47 107.451 47C106.181 47 105.228 46.7404 104.593 46.2212C103.995 45.6695 103.696 44.7933 103.696 43.5926L103.752 42.8138C102.594 45.6046 100.595 47 97.7548 47ZM99.9407 42.0836C100.987 42.0836 101.94 41.4508 102.799 40.1852C103.659 38.9196 104.425 36.6642 105.097 33.419L106.847 28.5026C105.315 28.5351 103.21 29.0543 101.902 30.0603C100.595 31.0339 99.5484 32.3319 98.7637 33.9545C97.979 35.5771 97.5867 37.297 97.5867 39.1143C97.5867 40.0878 97.7922 40.8342 98.2032 41.3534C98.6516 41.8402 99.2308 42.0836 99.9407 42.0836Z" fill="var(--fill-0, #DC0073)"/>
</g>
<g id="sparkles">
<path id="Vector" d="M161.001 4.00231V12.002M165.002 8.00215H157.001M143.034 5.63112C143.12 5.17235 143.363 4.75799 143.722 4.45981C144.081 4.16163 144.533 3.9984 145 3.9984C145.467 3.9984 145.919 4.16163 146.278 4.45981C146.637 4.75799 146.88 5.17235 146.966 5.63112L149.068 16.7467C149.218 17.537 149.602 18.2639 150.17 18.8325C150.739 19.4012 151.466 19.7853 152.257 19.9346L163.373 22.0365C163.832 22.1222 164.247 22.3656 164.545 22.7246C164.843 23.0837 165.006 23.5357 165.006 24.0024C165.006 24.4691 164.843 24.9211 164.545 25.2802C164.247 25.6392 163.832 25.8826 163.373 25.9683L152.257 28.0702C151.466 28.2195 150.739 28.6036 150.17 29.1723C149.602 29.7409 149.218 30.4679 149.068 31.2581L146.966 42.3737C146.88 42.8325 146.637 43.2468 146.278 43.545C145.919 43.8432 145.467 44.0064 145 44.0064C144.533 44.0064 144.081 43.8432 143.722 43.545C143.363 43.2468 143.12 42.8325 143.034 42.3737L140.932 31.2581C140.782 30.4679 140.398 29.7409 139.83 29.1723C139.261 28.6036 138.534 28.2195 137.743 28.0702L126.627 25.9683C126.168 25.8826 125.753 25.6392 125.455 25.2802C125.157 24.9211 124.994 24.4691 124.994 24.0024C124.994 23.5357 125.157 23.0837 125.455 22.7246C125.753 22.3656 126.168 22.1222 126.627 22.0365L137.743 19.9346C138.534 19.7853 139.261 19.4012 139.83 18.8325C140.398 18.2639 140.782 17.537 140.932 16.7467L143.034 5.63112ZM132.999 40.0009C132.999 42.2099 131.208 44.0007 128.999 44.0007C126.789 44.0007 124.998 42.2099 124.998 40.0009C124.998 37.7918 126.789 36.001 128.999 36.001C131.208 36.001 132.999 37.7918 132.999 40.0009Z" stroke="var(--stroke-0, #DC0073)" stroke-width="5" stroke-linecap="round"/>
</g>
</g>
</svg>
