<svg viewBox="120 0 50 48" fill="none" xmlns="http://www.w3.org/2000/svg">
  <path d="M161.001 4.00231V12.002M165.002 8.00215H157.001M143.034 5.63112C143.12 5.17235 143.363 4.75799 143.722 4.45981C144.081 4.16163 144.533 3.9984 145 3.9984C145.467 3.9984 145.919 4.16163 146.278 4.45981C146.637 4.75799 146.88 5.17235 146.966 5.63112L149.068 16.7467C149.218 17.537 149.602 18.2639 150.17 18.8325C150.739 19.4012 151.466 19.7853 152.257 19.9346L163.373 22.0365C163.832 22.1222 164.247 22.3656 164.545 22.7246C164.843 23.0837 165.006 23.5357 165.006 24.0024C165.006 24.4691 164.843 24.9211 164.545 25.2802C164.247 25.6392 163.832 25.8826 163.373 25.9683L152.257 28.0702C151.466 28.2195 150.739 28.6036 150.17 29.1723C149.602 29.7409 149.218 30.4679 149.068 31.2581L146.966 42.3737C146.88 42.8325 146.637 43.2468 146.278 43.545C145.919 43.8432 145.467 44.0064 145 44.0064C144.533 44.0064 144.081 43.8432 143.722 43.545C143.363 43.2468 143.12 42.8325 143.034 42.3737L140.932 31.2581C140.782 30.4679 140.398 29.7409 139.83 29.1723C139.261 28.6036 138.534 28.2195 137.743 28.0702L126.627 25.9683C126.168 25.8826 125.753 25.6392 125.455 25.2802C125.157 24.9211 124.994 24.4691 124.994 24.0024C124.994 23.5357 125.157 23.0837 125.455 22.7246C125.753 22.3656 126.168 22.1222 126.627 22.0365L137.743 19.9346C138.534 19.7853 139.261 19.4012 139.83 18.8325C140.398 18.2639 140.782 17.537 140.932 16.7467L143.034 5.63112ZM132.999 40.0009C132.999 42.2099 131.208 44.0007 128.999 44.0007C126.789 44.0007 124.998 42.2099 124.998 40.0009C124.998 37.7918 126.789 36.001 128.999 36.001C131.208 36.001 132.999 37.7918 132.999 40.0009Z" stroke="#DC0073" stroke-width="5" stroke-linecap="round"/>
</svg>
